<?xml version="1.0" standalone="no"?>
<!DOCTYPE svg PUBLIC "-//W3C//DTD SVG 20010904//EN"
 "http://www.w3.org/TR/2001/REC-SVG-20010904/DTD/svg10.dtd">
<svg version="1.0" xmlns="http://www.w3.org/2000/svg"
 width="1875.000000pt" height="1875.000000pt" viewBox="0 0 1875.000000 1875.000000"
 preserveAspectRatio="xMidYMid meet">
<metadata>
Created by potrace 1.14, written by Peter Selinger 2001-2017
</metadata>
<g transform="translate(0.000000,1875.000000) scale(0.100000,-0.100000)"
fill="#000000" stroke="none">
<path d="M11316 13914 c-13 -13 -16 -44 -16 -183 0 -147 2 -170 18 -183 18
-16 48 -16 65 1 6 6 10 80 10 182 0 156 -2 173 -18 186 -24 17 -40 17 -59 -3z"/>
<path d="M10838 13436 c-25 -18 -22 -53 5 -69 16 -11 62 -14 182 -13 88 1 166
5 173 9 19 12 15 65 -6 76 -29 16 -333 13 -354 -3z"/>
<path d="M11498 13439 c-19 -11 -23 -45 -9 -69 14 -20 347 -22 367 -2 20 20
17 60 -5 72 -26 13 -330 13 -353 -1z"/>
<path d="M11316 13254 c-13 -13 -16 -44 -16 -182 0 -92 4 -173 9 -181 5 -7 21
-13 36 -13 47 0 48 3 47 237 -1 112 -3 131 -18 142 -23 17 -39 16 -58 -3z"/>
<path d="M6962 12959 c-184 -24 -333 -193 -336 -378 0 -34 -5 -61 -11 -62 -5
0 -44 -2 -85 -4 -109 -5 -241 -14 -270 -20 -14 -2 -45 -6 -70 -9 -25 -3 -56
-8 -70 -11 -14 -3 -43 -8 -65 -11 -118 -17 -376 -114 -448 -168 -199 -149
-271 -280 -263 -482 3 -81 34 -221 56 -249 4 -5 11 -21 15 -34 13 -43 139
-248 166 -271 3 -3 10 -12 15 -22 58 -105 429 -459 682 -648 63 -48 89 -80 64
-80 -7 0 -165 -120 -207 -158 -11 -10 -60 -52 -110 -94 -93 -79 -307 -293
-385 -387 -125 -150 -244 -363 -278 -501 -52 -209 -9 -372 136 -518 40 -41 70
-77 67 -82 -12 -19 -6 -128 8 -178 16 -52 77 -156 107 -179 88 -72 176 -106
271 -106 148 0 286 83 353 214 18 35 19 35 70 30 120 -12 665 -3 766 13 14 3
66 7 115 11 50 4 97 8 105 10 8 1 41 6 74 10 32 3 68 8 80 10 11 2 44 6 71 10
54 6 155 22 195 30 14 3 50 9 80 15 30 6 65 13 76 15 16 4 24 -1 29 -18 9 -27
8 -25 27 -68 56 -128 173 -527 159 -545 -3 -5 -22 -17 -41 -28 -70 -38 -129
-119 -145 -201 -32 -158 11 -323 102 -392 l34 -26 -30 -21 c-71 -50 -118 -165
-115 -281 3 -137 26 -199 98 -268 l41 -40 -50 -51 c-61 -61 -86 -128 -89 -243
-5 -156 51 -270 159 -325 60 -32 100 -39 213 -41 l103 -2 54 -80 c57 -85 155
-192 220 -240 22 -17 42 -32 45 -35 35 -39 291 -157 312 -144 5 3 8 1 8 -4 0
-5 6 -9 13 -10 6 -1 47 -8 90 -16 189 -36 393 -12 582 71 59 25 169 87 192
108 6 5 26 21 45 35 61 45 159 154 213 235 l53 80 88 0 c127 -1 220 24 285 77
25 21 75 100 88 139 16 49 15 230 -1 277 -19 55 -51 104 -90 136 l-34 29 44
45 c24 24 56 69 70 100 22 48 25 69 25 161 -1 137 -22 196 -95 269 -29 29 -46
52 -39 52 24 0 90 81 111 137 16 42 20 78 20 166 0 106 -2 115 -33 177 -20 41
-47 75 -72 95 l-41 31 13 64 c8 36 15 74 18 85 15 73 101 343 132 415 8 19 21
50 29 68 10 23 19 32 30 28 8 -3 67 -15 132 -26 64 -11 126 -22 137 -24 11 -2
45 -7 75 -11 30 -4 64 -9 75 -11 11 -2 40 -6 65 -9 25 -2 63 -7 85 -10 22 -3
60 -8 85 -10 46 -3 157 -13 245 -21 108 -9 595 -12 680 -3 72 7 243 29 265 34
3 1 21 5 40 9 108 24 167 38 185 46 11 4 43 16 70 26 48 17 125 52 173 78 51
29 143 108 182 157 55 70 77 115 96 196 25 105 12 233 -35 358 -26 70 -139
276 -161 295 -3 3 -17 21 -30 40 -64 93 -277 321 -405 433 -37 33 -38 37 -24
54 86 101 110 278 55 400 -15 31 -37 71 -50 88 l-23 30 38 30 c131 103 429
440 494 560 15 28 33 57 40 65 15 18 71 154 93 225 11 33 16 89 16 165 0 96
-4 124 -22 171 -29 73 -69 132 -132 197 -157 161 -472 268 -881 299 -169 13
-681 5 -767 -12 -10 -1 -53 -6 -97 -10 -100 -8 -118 -11 -290 -36 -77 -12
-149 -23 -160 -24 -11 -2 -33 -6 -50 -9 -16 -4 -46 -9 -65 -12 -19 -3 -40 -7
-47 -9 -7 -2 -18 2 -25 8 -28 28 -167 135 -204 157 -21 13 -41 27 -44 31 -10
14 -124 78 -255 142 -361 179 -744 253 -1160 224 -55 -3 -109 -8 -120 -11 -11
-2 -42 -7 -69 -10 -27 -4 -79 -14 -115 -22 -36 -9 -77 -18 -90 -20 -32 -6
-259 -82 -274 -91 -7 -4 -14 -8 -17 -8 -8 0 -185 -79 -190 -85 -3 -3 -14 -10
-25 -16 -139 -76 -261 -157 -362 -241 l-72 -60 -53 9 c-29 5 -71 11 -93 14
-22 3 -47 7 -55 9 -8 3 -33 7 -55 10 -22 3 -49 7 -60 10 -11 2 -47 7 -80 10
-33 4 -63 9 -66 11 -4 2 -3 21 1 42 17 93 -22 245 -76 299 -7 8 -17 20 -21 27
-16 26 -104 85 -155 104 -65 24 -126 30 -196 21z m5318 -543 c190 -10 277 -20
425 -52 176 -39 366 -118 432 -181 7 -6 23 -20 36 -30 29 -24 80 -89 102 -133
46 -89 53 -209 20 -330 -1 -3 -5 -18 -10 -35 -16 -61 -153 -311 -184 -335 -3
-3 -19 -23 -36 -45 -56 -77 -213 -241 -350 -365 l-60 -55 -40 21 c-66 34 -128
47 -207 42 -114 -7 -211 -57 -283 -148 l-31 -38 -84 54 c-47 29 -95 59 -107
66 -12 7 -70 42 -130 78 -59 36 -112 67 -118 69 -23 9 -45 36 -45 55 0 34 -38
193 -77 316 -41 134 -107 293 -166 400 -22 41 -46 84 -51 95 -51 94 -199 289
-293 386 -30 31 -51 59 -46 62 5 3 27 8 49 11 22 4 49 8 59 10 100 18 314 45
490 62 39 3 86 8 105 9 19 2 105 7 190 11 85 3 156 7 157 8 2 2 116 -2 253 -8z
m-5606 -39 c73 -129 241 -219 379 -201 115 15 183 50 262 136 l56 60 57 -6
c31 -3 68 -8 82 -11 40 -8 72 -13 120 -20 25 -3 69 -10 98 -16 l53 -11 -53
-56 c-73 -78 -112 -126 -166 -202 -26 -36 -50 -66 -54 -68 -5 -2 -8 -10 -8
-18 0 -8 -4 -14 -8 -14 -5 0 -14 -10 -20 -22 -6 -13 -25 -45 -42 -73 -36 -60
-119 -227 -153 -310 -29 -71 -84 -239 -91 -275 -2 -14 -11 -52 -19 -85 -9 -33
-18 -80 -21 -104 -5 -49 -17 -62 -101 -109 -101 -57 -131 -75 -198 -118 -37
-24 -72 -44 -77 -44 -6 0 -10 -3 -10 -8 0 -4 -20 -18 -45 -32 -25 -14 -45 -28
-45 -32 0 -5 -4 -8 -9 -8 -5 0 -58 -33 -118 -74 l-108 -74 -26 22 c-14 11 -41
33 -60 47 -59 46 -194 153 -206 163 -6 6 -33 29 -60 51 -72 59 -312 301 -372
375 -28 36 -61 76 -72 89 -11 13 -27 37 -36 54 -8 17 -21 37 -28 44 -24 23
-103 198 -120 263 -34 127 -25 243 27 341 26 51 123 151 170 175 18 9 35 20
38 23 7 10 160 79 178 81 4 0 36 10 71 20 34 11 75 22 89 25 14 2 48 9 76 15
115 23 343 45 475 45 l74 0 21 -38z m446 -1533 c-15 -171 13 -496 58 -671 l19
-73 -31 19 c-17 10 -83 49 -146 86 -133 79 -413 255 -420 265 -3 4 -20 15 -37
25 -18 11 -33 24 -33 30 0 9 229 163 380 256 30 19 64 40 75 47 11 6 29 17 40
22 11 6 34 19 50 29 17 11 34 18 40 17 5 -1 7 -25 5 -52z m4536 47 c5 -5 31
-21 58 -36 27 -14 114 -68 193 -118 l144 -91 -6 -49 c-9 -60 -9 -105 -1 -154
l7 -38 -101 -65 c-56 -36 -121 -76 -145 -90 -24 -14 -80 -46 -126 -72 -45 -27
-86 -48 -90 -48 -5 0 -9 -4 -9 -10 0 -5 -5 -10 -11 -10 -7 0 -9 10 -6 23 25
115 47 230 51 267 3 25 9 59 12 75 3 17 6 119 7 228 0 108 3 197 7 197 3 0 10
-4 16 -9z m-5012 -561 c13 -8 100 -62 192 -121 93 -58 222 -136 287 -173 114
-66 119 -71 132 -126 4 -14 52 -122 84 -190 48 -99 120 -219 205 -340 167
-237 366 -567 366 -607 0 -11 -122 -35 -345 -68 -140 -20 -228 -31 -330 -41
-38 -3 -77 -8 -86 -9 -77 -15 -572 -24 -741 -15 l-58 3 -2 51 c0 28 -2 56 -3
61 -24 147 -118 265 -252 315 -173 65 -369 1 -472 -154 l-25 -38 -47 52 c-138
155 -150 333 -39 573 34 75 146 242 215 323 57 68 281 293 341 344 108 93 155
130 261 211 l114 88 90 -62 c49 -34 100 -69 113 -77z m5481 -50 c34 -47 111
-102 175 -126 30 -12 76 -17 135 -18 77 0 99 4 153 28 57 24 66 26 85 13 39
-25 291 -280 354 -358 151 -185 257 -381 279 -511 45 -272 -106 -466 -451
-577 -38 -13 -77 -24 -85 -26 -8 -2 -33 -8 -55 -13 -40 -11 -87 -19 -155 -28
-19 -3 -46 -7 -59 -9 -141 -25 -695 -25 -901 -1 -19 3 -62 7 -95 10 -33 4 -76
8 -95 11 -19 2 -57 7 -85 10 -128 15 -483 73 -494 81 -5 4 115 230 150 282 16
24 29 45 29 48 0 6 99 149 191 276 126 174 254 413 296 551 11 39 22 53 61 77
26 16 53 30 60 30 6 0 12 3 12 8 0 4 28 22 63 40 34 18 74 41 89 50 15 9 64
39 110 66 46 27 107 67 137 88 30 21 57 38 60 38 3 0 19 -18 36 -40z"/>
<path d="M12114 7963 c-4 -15 -8 -83 -8 -152 -1 -102 2 -129 15 -145 14 -17
22 -19 45 -11 l29 10 3 149 c3 162 -1 176 -49 176 -23 0 -30 -6 -35 -27z"/>
<path d="M6294 7640 c-12 -5 -25 -14 -29 -20 -14 -22 -9 -338 5 -355 18 -21
57 -19 70 4 6 11 10 90 10 184 0 144 -2 166 -17 179 -12 11 -25 13 -39 8z"/>
<path d="M11738 7591 c-30 -10 -37 -50 -12 -75 12 -13 41 -16 150 -16 75 0
144 5 155 10 28 15 26 66 -3 76 -24 9 -267 13 -290 5z"/>
<path d="M12276 7585 c-24 -19 -26 -45 -6 -65 18 -18 34 -20 158 -20 75 0 142
4 149 8 21 13 26 57 7 72 -20 18 -288 22 -308 5z"/>
<path d="M12124 7436 c-15 -11 -17 -32 -17 -161 0 -129 2 -150 17 -161 13 -9
25 -10 47 -2 l29 10 0 146 c0 81 -4 153 -8 160 -12 18 -47 22 -68 8z"/>
<path d="M5855 7162 c-65 -6 -75 -11 -75 -41 0 -16 7 -34 15 -41 19 -16 342
-15 361 1 18 15 18 53 0 68 -13 11 -226 20 -301 13z"/>
<path d="M6479 7160 c-12 -3 -28 -15 -36 -26 -12 -18 -11 -24 4 -43 17 -21 25
-22 188 -22 149 1 172 3 183 18 16 22 15 48 -2 62 -15 13 -293 21 -337 11z"/>
<path d="M6280 6972 c-22 -18 -23 -25 -22 -153 1 -236 -2 -217 32 -224 58 -13
61 -2 58 193 -3 165 -4 175 -24 189 -19 12 -24 11 -44 -5z"/>
</g>
</svg>
